<?xml version="1.0" encoding="UTF-8"?>
<svg xmlns="http://www.w3.org/2000/svg" width="48" height="48" viewBox="0 0 48 48">
  <defs>
    <linearGradient id="fFaceHL" x1="50%" y1="0%" x2="50%" y2="100%">
      <stop offset="0%" stop-color="#33EBFF"/>
      <stop offset="55%" stop-color="#00BCD4"/>
      <stop offset="100%" stop-color="#7f0000"/>
    </linearGradient>
    <linearGradient id="fFaceMain" x1="0%" y1="0%" x2="100%" y2="100%">
      <stop offset="0%" stop-color="#00D4E8"/>
      <stop offset="50%" stop-color="#00BCD4"/>
      <stop offset="100%" stop-color="#8e0000"/>
    </linearGradient>
    <linearGradient id="fFaceSH" x1="50%" y1="0%" x2="50%" y2="100%">
      <stop offset="0%" stop-color="#b71c1c"/>
      <stop offset="100%" stop-color="#5d0000"/>
    </linearGradient>
    <radialGradient id="fCenterGrad" cx="50%" cy="42%" r="60%">
      <stop offset="0%" stop-color="#33EBFF" stop-opacity="0.35"/>
      <stop offset="45%" stop-color="#00BCD4"/>
      <stop offset="100%" stop-color="#7f0000"/>
    </radialGradient>
  </defs>

  <!-- Background -->
  <rect width="48" height="48" rx="7.199999999999999" fill="#060A14"/>

  <!-- Border -->
  <rect x="1" y="1" width="46" height="46" rx="6.720000000000001" fill="none" stroke="#00E5FF" stroke-width="0.5" stroke-opacity="0.3"/>

  <!-- Outer faces -->
  <polygon points="24.00,5.76 41.35,18.36 30.00,15.74" fill="url(#fFaceHL)" stroke="#5d0000" stroke-width="0.5" opacity="0.99"/>
  <polygon points="41.35,18.36 34.72,38.76 33.71,27.16" fill="url(#fFaceHL)" stroke="#5d0000" stroke-width="0.5" opacity="0.97"/>
  <polygon points="34.72,38.76 13.28,38.76 24.00,34.21" fill="url(#fFaceSH)" stroke="#5d0000" stroke-width="0.5" opacity="0.94"/>
  <polygon points="13.28,38.76 6.65,18.36 14.29,27.16" fill="url(#fFaceMain)" stroke="#5d0000" stroke-width="0.5" opacity="0.94"/>
  <polygon points="6.65,18.36 24.00,5.76 18.00,15.74" fill="url(#fFaceHL)" stroke="#5d0000" stroke-width="0.5" opacity="0.97"/>

  <!-- Inner faces -->
  <polygon points="30.00,15.74 33.71,27.16 41.35,18.36" fill="url(#fFaceMain)" stroke="#5d0000" stroke-width="0.5" opacity="0.93"/>
  <polygon points="33.71,27.16 24.00,34.21 34.72,38.76" fill="url(#fFaceSH)" stroke="#5d0000" stroke-width="0.5" opacity="0.90"/>
  <polygon points="24.00,34.21 14.29,27.16 13.28,38.76" fill="url(#fFaceSH)" stroke="#5d0000" stroke-width="0.5" opacity="0.88"/>
  <polygon points="14.29,27.16 18.00,15.74 6.65,18.36" fill="url(#fFaceSH)" stroke="#5d0000" stroke-width="0.5" opacity="0.89"/>
  <polygon points="18.00,15.74 30.00,15.74 24.00,5.76" fill="url(#fFaceMain)" stroke="#5d0000" stroke-width="0.5" opacity="0.92"/>

  <!-- Center face -->
  <polygon points="30.00,15.74 33.71,27.16 24.00,34.21 14.29,27.16 18.00,15.74" fill="url(#fCenterGrad)" stroke="#33EBFF" stroke-width="0.5" stroke-opacity="0.25"/>

  <!-- "20" text -->
  <text x="24" y="29.375999999999998" text-anchor="middle" font-size="15.36" font-weight="900" font-family="Arial, Helvetica, sans-serif" fill="#ffffff" fill-opacity="0.95">20</text>
</svg>